ISO-10303-21;
HEADER;

/* File generated by Shapr3D Version 26.50.10685.0 */

FILE_DESCRIPTION(('HOOPS Exchange Step'),'2;1');

FILE_NAME('C:\\Users\\10604\\AppData\\Local\\Packages\\Shapr3D.Shapr3D_dvv5p1vgwv6mp\\TempState\\export\\temp_export',
'2026-04-28T19:53:17+08:00',
('10604'),
('Shapr3D Limited'),
'HOOPS Exchange 2025.9',
'Shapr3D',
'Authorized');

FILE_SCHEMA( ('AP242_MANAGED_MODEL_BASED_3D_ENGINEERING_MIM_LF {1 0 10303 442 1 1 4}') );

ENDSEC;

DATA;
#3=(NAMED_UNIT(*)PLANE_ANGLE_UNIT()SI_UNIT($,.RADIAN.));
#4=PLANE_ANGLE_MEASURE_WITH_UNIT(PLANE_ANGLE_MEASURE(0.0174532925),#3);
#5=(CONVERSION_BASED_UNIT('DEGREE',#4)NAMED_UNIT(#6)PLANE_ANGLE_UNIT());
#6=DIMENSIONAL_EXPONENTS(0.,0.,0.,0.,0.,0.,0.);
#7=(NAMED_UNIT(*)SI_UNIT($,.STERADIAN.)SOLID_ANGLE_UNIT());
#8=(LENGTH_UNIT()NAMED_UNIT(*)SI_UNIT(.MILLI.,.METRE.));
#9=UNCERTAINTY_MEASURE_WITH_UNIT(LENGTH_MEASURE(1.000000E-05),#8,'DISTANCE_ACCURACY_VALUE','Maximum Tolerance applied to model');
#10=(GEOMETRIC_REPRESENTATION_CONTEXT(3)GLOBAL_UNCERTAINTY_ASSIGNED_CONTEXT((#9))GLOBAL_UNIT_ASSIGNED_CONTEXT((#8,#5,#7))REPRESENTATION_CONTEXT('','\X2\5F0051735E3D\X0\'));
#12=CARTESIAN_POINT('',(0.,0.,0.));
#13=DIRECTION('',(0.,0.,1.));
#14=DIRECTION('',(1.,0.,0.));
#15=AXIS2_PLACEMENT_3D('',#12,#13,#14);
#27=CARTESIAN_POINT('',(14.28602996,-46.33252286,39.936469244));
#28=DIRECTION('',(0.,-1.,0.));
#29=DIRECTION('',(1.,0.,0.));
#30=AXIS2_PLACEMENT_3D('',#27,#28,#29);
#31=PLANE('',#30);
#32=CARTESIAN_POINT('',(14.78566606,-46.33252286,41.086469234));
#33=VERTEX_POINT('',#32);
#34=CARTESIAN_POINT('',(13.200102076,-46.33252286,38.822049191));
#35=VERTEX_POINT('',#34);
#36=CARTESIAN_POINT('',(14.78566606,-46.33252286,41.086469234));
#37=DIRECTION('',(-0.573576436,-0.,-0.819152044));
#38=VECTOR('',#37,2.764346447);
#39=LINE('',#36,#38);
#40=EDGE_CURVE('',#33,#35,#39,.T.);
#41=ORIENTED_EDGE('',*,*,#40,.T.);
#42=CARTESIAN_POINT('',(13.43602996,-46.33252286,38.786469254));
#43=VERTEX_POINT('',#42);
#44=CARTESIAN_POINT('',(13.43602996,-46.33252286,39.586469254));
#45=DIRECTION('',(0.,-1.,0.));
#46=DIRECTION('',(0.,-0.,-1.));
#47=AXIS2_PLACEMENT_3D('',#44,#45,#46);
#48=CIRCLE('',#47,0.8);
#49=EDGE_CURVE('',#35,#43,#48,.T.);
#50=ORIENTED_EDGE('',*,*,#49,.T.);
#51=CARTESIAN_POINT('',(13.78557603,-46.33252286,38.786469254));
#52=VERTEX_POINT('',#51);
#53=CARTESIAN_POINT('',(13.78557603,-46.33252286,38.786469254));
#54=DIRECTION('',(-1.,0.,0.));
#55=VECTOR('',#54,0.34954607);
#56=LINE('',#53,#55);
#57=EDGE_CURVE('',#52,#43,#56,.T.);
#58=ORIENTED_EDGE('',*,*,#57,.F.);
#59=CARTESIAN_POINT('',(15.37128516,-46.33252286,41.051096588));
#60=VERTEX_POINT('',#59);
#61=CARTESIAN_POINT('',(13.78557603,-46.33252286,38.786469254));
#62=DIRECTION('',(0.573576436,0.,0.819152044));
#63=VECTOR('',#62,2.764599502);
#64=LINE('',#61,#63);
#65=EDGE_CURVE('',#52,#60,#64,.T.);
#66=ORIENTED_EDGE('',*,*,#65,.T.);
#67=CARTESIAN_POINT('',(15.13602996,-46.33252286,41.086469234));
#68=VERTEX_POINT('',#67);
#69=CARTESIAN_POINT('',(15.13602996,-46.33252286,40.286469234));
#70=DIRECTION('',(0.,-1.,0.));
#71=DIRECTION('',(0.,-0.,-1.));
#72=AXIS2_PLACEMENT_3D('',#69,#70,#71);
#73=CIRCLE('',#72,0.8);
#74=EDGE_CURVE('',#60,#68,#73,.T.);
#75=ORIENTED_EDGE('',*,*,#74,.T.);
#76=CARTESIAN_POINT('',(14.78566606,-46.33252286,41.086469234));
#77=DIRECTION('',(1.,0.,-0.));
#78=VECTOR('',#77,0.350363901);
#79=LINE('',#76,#78);
#80=EDGE_CURVE('',#33,#68,#79,.T.);
#81=ORIENTED_EDGE('',*,*,#80,.F.);
#82=EDGE_LOOP('',(#41,#50,#58,#66,#75,#81));
#83=FACE_BOUND('',#82,.T.);
#84=ADVANCED_FACE('',(#83),#31,.T.);
#85=CARTESIAN_POINT('',(14.28602996,-46.56252286,38.786469254));
#86=DIRECTION('',(0.,-0.,-1.));
#87=DIRECTION('',(0.,1.,-0.));
#88=AXIS2_PLACEMENT_3D('',#85,#86,#87);
#89=PLANE('',#88);
#90=ORIENTED_EDGE('',*,*,#57,.T.);
#91=CARTESIAN_POINT('',(13.43602996,-44.76252286,38.786469254));
#92=VERTEX_POINT('',#91);
#93=CARTESIAN_POINT('',(13.43602996,-46.33252286,38.786469254));
#94=DIRECTION('',(0.,1.,-0.));
#95=VECTOR('',#94,1.57);
#96=LINE('',#93,#95);
#97=EDGE_CURVE('',#43,#92,#96,.T.);
#98=ORIENTED_EDGE('',*,*,#97,.T.);
#99=CARTESIAN_POINT('',(15.13602996,-44.76252286,38.786469254));
#100=VERTEX_POINT('',#99);
#101=CARTESIAN_POINT('',(15.13602996,-44.76252286,38.786469254));
#102=DIRECTION('',(-1.,0.,0.));
#103=VECTOR('',#102,1.7);
#104=LINE('',#101,#103);
#105=EDGE_CURVE('',#100,#92,#104,.T.);
#106=ORIENTED_EDGE('',*,*,#105,.F.);
#107=CARTESIAN_POINT('',(15.13602996,-45.94252286,38.786469254));
#108=VERTEX_POINT('',#107);
#109=CARTESIAN_POINT('',(15.13602996,-44.76252286,38.786469254));
#110=DIRECTION('',(-0.,-1.,0.));
#111=VECTOR('',#110,1.18);
#112=LINE('',#109,#111);
#113=EDGE_CURVE('',#100,#108,#112,.T.);
#114=ORIENTED_EDGE('',*,*,#113,.T.);
#115=CARTESIAN_POINT('',(15.006350619,-45.94252286,38.786469254));
#116=VERTEX_POINT('',#115);
#117=CARTESIAN_POINT('',(15.13602996,-45.94252286,38.786469254));
#118=DIRECTION('',(-1.,0.,0.));
#119=VECTOR('',#118,0.129679342);
#120=LINE('',#117,#119);
#121=EDGE_CURVE('',#108,#116,#120,.T.);
#122=ORIENTED_EDGE('',*,*,#121,.T.);
#123=CARTESIAN_POINT('',(15.006350619,-46.33252286,38.786469254));
#124=VERTEX_POINT('',#123);
#125=CARTESIAN_POINT('',(15.006350619,-45.94252286,38.786469254));
#126=DIRECTION('',(0.,-1.,0.));
#127=VECTOR('',#126,0.39);
#128=LINE('',#125,#127);
#129=EDGE_CURVE('',#116,#124,#128,.T.);
#130=ORIENTED_EDGE('',*,*,#129,.T.);
#131=CARTESIAN_POINT('',(14.395963324,-46.33252286,38.786469254));
#132=VERTEX_POINT('',#131);
#133=CARTESIAN_POINT('',(15.006350619,-46.33252286,38.786469254));
#134=DIRECTION('',(-1.,0.,0.));
#135=VECTOR('',#134,0.610387294);
#136=LINE('',#133,#135);
#137=EDGE_CURVE('',#124,#132,#136,.T.);
#138=ORIENTED_EDGE('',*,*,#137,.T.);
#139=CARTESIAN_POINT('',(14.395963324,-45.94252286,38.786469254));
#140=VERTEX_POINT('',#139);
#141=CARTESIAN_POINT('',(14.395963324,-45.94252286,38.786469254));
#142=DIRECTION('',(0.,-1.,0.));
#143=VECTOR('',#142,0.39);
#144=LINE('',#141,#143);
#145=EDGE_CURVE('',#140,#132,#144,.T.);
#146=ORIENTED_EDGE('',*,*,#145,.F.);
#147=CARTESIAN_POINT('',(13.78557603,-45.94252286,38.786469254));
#148=VERTEX_POINT('',#147);
#149=CARTESIAN_POINT('',(14.395963324,-45.94252286,38.786469254));
#150=DIRECTION('',(-1.,0.,0.));
#151=VECTOR('',#150,0.610387294);
#152=LINE('',#149,#151);
#153=EDGE_CURVE('',#140,#148,#152,.T.);
#154=ORIENTED_EDGE('',*,*,#153,.T.);
#155=CARTESIAN_POINT('',(13.78557603,-45.94252286,38.786469254));
#156=DIRECTION('',(0.,-1.,0.));
#157=VECTOR('',#156,0.39);
#158=LINE('',#155,#157);
#159=EDGE_CURVE('',#148,#52,#158,.T.);
#160=ORIENTED_EDGE('',*,*,#159,.T.);
#161=EDGE_LOOP('',(#90,#98,#106,#114,#122,#130,#138,#146,#154,#160));
#162=FACE_BOUND('',#161,.T.);
#163=ADVANCED_FACE('',(#162),#89,.T.);
#164=CARTESIAN_POINT('',(14.491706567,-46.74252286,40.666651571));
#165=DIRECTION('',(-0.819152044,0.,0.573576436));
#166=DIRECTION('',(-0.573576436,-0.,-0.819152044));
#167=AXIS2_PLACEMENT_3D('',#164,#165,#166);
#168=PLANE('',#167);
#169=CARTESIAN_POINT('',(14.78566606,-45.94252286,41.086469234));
#170=VERTEX_POINT('',#169);
#171=CARTESIAN_POINT('',(13.200102076,-45.94252286,38.822049191));
#172=VERTEX_POINT('',#171);
#173=CARTESIAN_POINT('',(14.78566606,-45.94252286,41.086469234));
#174=DIRECTION('',(-0.573576436,-0.,-0.819152044));
#175=VECTOR('',#174,2.764346447);
#176=LINE('',#173,#175);
#177=EDGE_CURVE('',#170,#172,#176,.T.);
#178=ORIENTED_EDGE('',*,*,#177,.T.);
#179=CARTESIAN_POINT('',(13.200102076,-45.94252286,38.822049191));
#180=DIRECTION('',(-0.,-1.,0.));
#181=VECTOR('',#180,0.39);
#182=LINE('',#179,#181);
#183=EDGE_CURVE('',#172,#35,#182,.T.);
#184=ORIENTED_EDGE('',*,*,#183,.T.);
#185=ORIENTED_EDGE('',*,*,#40,.F.);
#186=CARTESIAN_POINT('',(14.78566606,-45.94252286,41.086469234));
#187=DIRECTION('',(0.,-1.,0.));
#188=VECTOR('',#187,0.39);
#189=LINE('',#186,#188);
#190=EDGE_CURVE('',#170,#33,#189,.T.);
#191=ORIENTED_EDGE('',*,*,#190,.F.);
#192=EDGE_LOOP('',(#178,#184,#185,#191));
#193=FACE_BOUND('',#192,.T.);
#194=ADVANCED_FACE('',(#193),#168,.T.);
#195=CARTESIAN_POINT('',(13.636029972,-41.232522886,39.286469244));
#196=DIRECTION('',(0.,0.,-1.));
#197=DIRECTION('',(0.,-1.,0.));
#198=AXIS2_PLACEMENT_3D('',#195,#196,#197);
#199=PLANE('',#198);
#200=CARTESIAN_POINT('',(13.722670203,-45.54252286,39.286469244));
#201=VERTEX_POINT('',#200);
#202=CARTESIAN_POINT('',(13.636420203,-44.16252286,39.286469244));
#203=VERTEX_POINT('',#202);
#204=CARTESIAN_POINT('',(13.722670203,-45.54252286,39.286469244));
#205=DIRECTION('',(-0.062378286,0.998052578,0.));
#206=VECTOR('',#205,1.382692685);
#207=LINE('',#204,#206);
#208=EDGE_CURVE('',#201,#203,#207,.T.);
#209=ORIENTED_EDGE('',*,*,#208,.F.);
#210=CARTESIAN_POINT('',(14.849389718,-45.54252286,39.286469244));
#211=VERTEX_POINT('',#210);
#212=CARTESIAN_POINT('',(13.722670203,-45.54252286,39.286469244));
#213=DIRECTION('',(1.,0.,-0.));
#214=VECTOR('',#213,1.126719515);
#215=LINE('',#212,#214);
#216=EDGE_CURVE('',#201,#211,#215,.T.);
#217=ORIENTED_EDGE('',*,*,#216,.T.);
#218=CARTESIAN_POINT('',(14.935639717,-44.16252286,39.286469244));
#219=VERTEX_POINT('',#218);
#220=CARTESIAN_POINT('',(14.849389718,-45.54252286,39.286469244));
#221=DIRECTION('',(0.062378286,0.998052578,0.));
#222=VECTOR('',#221,1.382692685);
#223=LINE('',#220,#222);
#224=EDGE_CURVE('',#211,#219,#223,.T.);
#225=ORIENTED_EDGE('',*,*,#224,.T.);
#226=CARTESIAN_POINT('',(13.636420203,-44.16252286,39.286469244));
#227=DIRECTION('',(1.,0.,-0.));
#228=VECTOR('',#227,1.299219514);
#229=LINE('',#226,#228);
#230=EDGE_CURVE('',#203,#219,#229,.T.);
#231=ORIENTED_EDGE('',*,*,#230,.F.);
#232=EDGE_LOOP('',(#209,#217,#225,#231));
#233=FACE_BOUND('',#232,.T.);
#234=ADVANCED_FACE('',(#233),#199,.F.);
#235=CARTESIAN_POINT('',(13.026495082,-34.403720906,39.486469244));
#236=DIRECTION('',(0.998052578,0.062378286,-0.));
#237=DIRECTION('',(-0.062378286,0.998052578,-0.));
#238=AXIS2_PLACEMENT_3D('',#235,#236,#237);
#239=PLANE('',#238);
#240=CARTESIAN_POINT('',(13.722670203,-45.54252286,39.736469244));
#241=VERTEX_POINT('',#240);
#242=CARTESIAN_POINT('',(13.722670203,-45.54252286,39.736469244));
#243=DIRECTION('',(-0.,0.,-1.));
#244=VECTOR('',#243,0.45);
#245=LINE('',#242,#244);
#246=EDGE_CURVE('',#241,#201,#245,.T.);
#247=ORIENTED_EDGE('',*,*,#246,.T.);
#248=ORIENTED_EDGE('',*,*,#208,.T.);
#249=CARTESIAN_POINT('',(13.636420203,-44.16252286,39.736469244));
#250=VERTEX_POINT('',#249);
#251=CARTESIAN_POINT('',(13.636420203,-44.16252286,39.286469244));
#252=DIRECTION('',(0.,0.,1.));
#253=VECTOR('',#252,0.45);
#254=LINE('',#251,#253);
#255=EDGE_CURVE('',#203,#250,#254,.T.);
#256=ORIENTED_EDGE('',*,*,#255,.T.);
#257=CARTESIAN_POINT('',(13.636420203,-44.16252286,39.736469244));
#258=DIRECTION('',(0.062378286,-0.998052578,0.));
#259=VECTOR('',#258,1.382692685);
#260=LINE('',#257,#259);
#261=EDGE_CURVE('',#250,#241,#260,.T.);
#262=ORIENTED_EDGE('',*,*,#261,.T.);
#263=EDGE_LOOP('',(#247,#248,#256,#262));
#264=FACE_BOUND('',#263,.T.);
#265=ADVANCED_FACE('',(#264),#239,.T.);
#266=CARTESIAN_POINT('',(15.708989279,-31.788929854,39.486469244));
#267=DIRECTION('',(-0.998052578,0.062378286,-0.));
#268=DIRECTION('',(-0.062378286,-0.998052578,0.));
#269=AXIS2_PLACEMENT_3D('',#266,#267,#268);
#270=PLANE('',#269);
#271=ORIENTED_EDGE('',*,*,#224,.F.);
#272=CARTESIAN_POINT('',(14.849389718,-45.54252286,39.736469244));
#273=VERTEX_POINT('',#272);
#274=CARTESIAN_POINT('',(14.849389718,-45.54252286,39.736469244));
#275=DIRECTION('',(0.,0.,-1.));
#276=VECTOR('',#275,0.45);
#277=LINE('',#274,#276);
#278=EDGE_CURVE('',#273,#211,#277,.T.);
#279=ORIENTED_EDGE('',*,*,#278,.F.);
#280=CARTESIAN_POINT('',(14.935639717,-44.16252286,39.736469244));
#281=VERTEX_POINT('',#280);
#282=CARTESIAN_POINT('',(14.935639717,-44.16252286,39.736469244));
#283=DIRECTION('',(-0.062378286,-0.998052578,0.));
#284=VECTOR('',#283,1.382692685);
#285=LINE('',#282,#284);
#286=EDGE_CURVE('',#281,#273,#285,.T.);
#287=ORIENTED_EDGE('',*,*,#286,.F.);
#288=CARTESIAN_POINT('',(14.935639717,-44.16252286,39.286469244));
#289=DIRECTION('',(0.,0.,1.));
#290=VECTOR('',#289,0.45);
#291=LINE('',#288,#290);
#292=EDGE_CURVE('',#219,#281,#291,.T.);
#293=ORIENTED_EDGE('',*,*,#292,.F.);
#294=EDGE_LOOP('',(#271,#279,#287,#293));
#295=FACE_BOUND('',#294,.T.);
#296=ADVANCED_FACE('',(#295),#270,.T.);
#297=CARTESIAN_POINT('',(13.636029972,-42.63252286,40.586469244));
#298=DIRECTION('',(0.,0.,1.));
#299=DIRECTION('',(0.,1.,0.));
#300=AXIS2_PLACEMENT_3D('',#297,#298,#299);
#301=PLANE('',#300);
#302=CARTESIAN_POINT('',(13.636420203,-44.16252286,40.586469244));
#303=VERTEX_POINT('',#302);
#304=CARTESIAN_POINT('',(14.935639717,-44.16252286,40.586469244));
#305=VERTEX_POINT('',#304);
#306=CARTESIAN_POINT('',(13.636420203,-44.16252286,40.586469244));
#307=DIRECTION('',(1.,-0.,-0.));
#308=VECTOR('',#307,1.299219514);
#309=LINE('',#306,#308);
#310=EDGE_CURVE('',#303,#305,#309,.T.);
#311=ORIENTED_EDGE('',*,*,#310,.T.);
#312=CARTESIAN_POINT('',(14.849389718,-45.54252286,40.586469244));
#313=VERTEX_POINT('',#312);
#314=CARTESIAN_POINT('',(14.935639717,-44.16252286,40.586469244));
#315=DIRECTION('',(-0.062378286,-0.998052578,-0.));
#316=VECTOR('',#315,1.382692685);
#317=LINE('',#314,#316);
#318=EDGE_CURVE('',#305,#313,#317,.T.);
#319=ORIENTED_EDGE('',*,*,#318,.T.);
#320=CARTESIAN_POINT('',(13.722670203,-45.54252286,40.586469244));
#321=VERTEX_POINT('',#320);
#322=CARTESIAN_POINT('',(13.722670203,-45.54252286,40.586469244));
#323=DIRECTION('',(1.,-0.,-0.));
#324=VECTOR('',#323,1.126719515);
#325=LINE('',#322,#324);
#326=EDGE_CURVE('',#321,#313,#325,.T.);
#327=ORIENTED_EDGE('',*,*,#326,.F.);
#328=CARTESIAN_POINT('',(13.636420203,-44.16252286,40.586469244));
#329=DIRECTION('',(0.062378286,-0.998052578,-0.));
#330=VECTOR('',#329,1.382692685);
#331=LINE('',#328,#330);
#332=EDGE_CURVE('',#303,#321,#331,.T.);
#333=ORIENTED_EDGE('',*,*,#332,.F.);
#334=EDGE_LOOP('',(#311,#319,#327,#333));
#335=FACE_BOUND('',#334,.T.);
#336=ADVANCED_FACE('',(#335),#301,.F.);
#337=CARTESIAN_POINT('',(15.708989279,-31.788929854,39.486469244));
#338=DIRECTION('',(-0.998052578,0.062378286,-0.));
#339=DIRECTION('',(-0.062378286,-0.998052578,0.));
#340=AXIS2_PLACEMENT_3D('',#337,#338,#339);
#341=PLANE('',#340);
#342=ORIENTED_EDGE('',*,*,#318,.F.);
#343=CARTESIAN_POINT('',(14.935639717,-44.16252286,40.136469244));
#344=VERTEX_POINT('',#343);
#345=CARTESIAN_POINT('',(14.935639717,-44.16252286,40.136469244));
#346=DIRECTION('',(0.,0.,1.));
#347=VECTOR('',#346,0.45);
#348=LINE('',#345,#347);
#349=EDGE_CURVE('',#344,#305,#348,.T.);
#350=ORIENTED_EDGE('',*,*,#349,.F.);
#351=CARTESIAN_POINT('',(14.849389718,-45.54252286,40.136469244));
#352=VERTEX_POINT('',#351);
#353=CARTESIAN_POINT('',(14.849389718,-45.54252286,40.136469244));
#354=DIRECTION('',(0.062378286,0.998052578,-0.));
#355=VECTOR('',#354,1.382692685);
#356=LINE('',#353,#355);
#357=EDGE_CURVE('',#352,#344,#356,.T.);
#358=ORIENTED_EDGE('',*,*,#357,.F.);
#359=CARTESIAN_POINT('',(14.849389718,-45.54252286,40.586469244));
#360=DIRECTION('',(0.,0.,-1.));
#361=VECTOR('',#360,0.45);
#362=LINE('',#359,#361);
#363=EDGE_CURVE('',#313,#352,#362,.T.);
#364=ORIENTED_EDGE('',*,*,#363,.F.);
#365=EDGE_LOOP('',(#342,#350,#358,#364));
#366=FACE_BOUND('',#365,.T.);
#367=ADVANCED_FACE('',(#366),#341,.T.);
#368=CARTESIAN_POINT('',(13.026495082,-34.403720906,39.486469244));
#369=DIRECTION('',(0.998052578,0.062378286,-0.));
#370=DIRECTION('',(-0.062378286,0.998052578,-0.));
#371=AXIS2_PLACEMENT_3D('',#368,#369,#370);
#372=PLANE('',#371);
#373=CARTESIAN_POINT('',(13.636420203,-44.16252286,40.136469244));
#374=VERTEX_POINT('',#373);
#375=CARTESIAN_POINT('',(13.636420203,-44.16252286,40.136469244));
#376=DIRECTION('',(0.,0.,1.));
#377=VECTOR('',#376,0.45);
#378=LINE('',#375,#377);
#379=EDGE_CURVE('',#374,#303,#378,.T.);
#380=ORIENTED_EDGE('',*,*,#379,.T.);
#381=ORIENTED_EDGE('',*,*,#332,.T.);
#382=CARTESIAN_POINT('',(13.722670203,-45.54252286,40.136469244));
#383=VERTEX_POINT('',#382);
#384=CARTESIAN_POINT('',(13.722670203,-45.54252286,40.586469244));
#385=DIRECTION('',(-0.,0.,-1.));
#386=VECTOR('',#385,0.45);
#387=LINE('',#384,#386);
#388=EDGE_CURVE('',#321,#383,#387,.T.);
#389=ORIENTED_EDGE('',*,*,#388,.T.);
#390=CARTESIAN_POINT('',(13.722670203,-45.54252286,40.136469244));
#391=DIRECTION('',(-0.062378286,0.998052578,-0.));
#392=VECTOR('',#391,1.382692685);
#393=LINE('',#390,#392);
#394=EDGE_CURVE('',#383,#374,#393,.T.);
#395=ORIENTED_EDGE('',*,*,#394,.T.);
#396=EDGE_LOOP('',(#380,#381,#389,#395));
#397=FACE_BOUND('',#396,.T.);
#398=ADVANCED_FACE('',(#397),#372,.T.);
#399=CARTESIAN_POINT('',(14.93602996,-43.46252286,39.936469244));
#400=DIRECTION('',(1.,0.,0.));
#401=DIRECTION('',(0.,1.,-0.));
#402=AXIS2_PLACEMENT_3D('',#399,#400,#401);
#403=PLANE('',#402);
#404=CARTESIAN_POINT('',(14.93602996,-45.54252286,40.136469244));
#405=VERTEX_POINT('',#404);
#406=CARTESIAN_POINT('',(14.93602996,-44.16252286,40.136469244));
#407=VERTEX_POINT('',#406);
#408=CARTESIAN_POINT('',(14.93602996,-45.54252286,40.136469244));
#409=DIRECTION('',(0.,1.,-0.));
#410=VECTOR('',#409,1.38);
#411=LINE('',#408,#410);
#412=EDGE_CURVE('',#405,#407,#411,.T.);
#413=ORIENTED_EDGE('',*,*,#412,.T.);
#414=CARTESIAN_POINT('',(14.93602996,-44.16252286,39.736469244));
#415=VERTEX_POINT('',#414);
#416=CARTESIAN_POINT('',(14.93602996,-44.16252286,39.736469244));
#417=DIRECTION('',(0.,0.,1.));
#418=VECTOR('',#417,0.4);
#419=LINE('',#416,#418);
#420=EDGE_CURVE('',#415,#407,#419,.T.);
#421=ORIENTED_EDGE('',*,*,#420,.F.);
#422=CARTESIAN_POINT('',(14.93602996,-45.54252286,39.736469244));
#423=VERTEX_POINT('',#422);
#424=CARTESIAN_POINT('',(14.93602996,-44.16252286,39.736469244));
#425=DIRECTION('',(0.,-1.,0.));
#426=VECTOR('',#425,1.38);
#427=LINE('',#424,#426);
#428=EDGE_CURVE('',#415,#423,#427,.T.);
#429=ORIENTED_EDGE('',*,*,#428,.T.);
#430=CARTESIAN_POINT('',(14.93602996,-45.54252286,39.736469244));
#431=DIRECTION('',(0.,0.,1.));
#432=VECTOR('',#431,0.4);
#433=LINE('',#430,#432);
#434=EDGE_CURVE('',#423,#405,#433,.T.);
#435=ORIENTED_EDGE('',*,*,#434,.T.);
#436=EDGE_LOOP('',(#413,#421,#429,#435));
#437=FACE_BOUND('',#436,.T.);
#438=ADVANCED_FACE('',(#437),#403,.F.);
#439=CARTESIAN_POINT('',(13.63602996,-43.46252286,39.936469244));
#440=DIRECTION('',(1.,0.,0.));
#441=DIRECTION('',(0.,1.,-0.));
#442=AXIS2_PLACEMENT_3D('',#439,#440,#441);
#443=PLANE('',#442);
#444=CARTESIAN_POINT('',(13.63602996,-44.16252286,39.736469244));
#445=VERTEX_POINT('',#444);
#446=CARTESIAN_POINT('',(13.63602996,-44.16252286,40.136469244));
#447=VERTEX_POINT('',#446);
#448=CARTESIAN_POINT('',(13.63602996,-44.16252286,39.736469244));
#449=DIRECTION('',(0.,0.,1.));
#450=VECTOR('',#449,0.4);
#451=LINE('',#448,#450);
#452=EDGE_CURVE('',#445,#447,#451,.T.);
#453=ORIENTED_EDGE('',*,*,#452,.T.);
#454=CARTESIAN_POINT('',(13.63602996,-45.54252286,40.136469244));
#455=VERTEX_POINT('',#454);
#456=CARTESIAN_POINT('',(13.63602996,-45.54252286,40.136469244));
#457=DIRECTION('',(0.,1.,-0.));
#458=VECTOR('',#457,1.38);
#459=LINE('',#456,#458);
#460=EDGE_CURVE('',#455,#447,#459,.T.);
#461=ORIENTED_EDGE('',*,*,#460,.F.);
#462=CARTESIAN_POINT('',(13.63602996,-45.54252286,39.736469244));
#463=VERTEX_POINT('',#462);
#464=CARTESIAN_POINT('',(13.63602996,-45.54252286,39.736469244));
#465=DIRECTION('',(0.,0.,1.));
#466=VECTOR('',#465,0.4);
#467=LINE('',#464,#466);
#468=EDGE_CURVE('',#463,#455,#467,.T.);
#469=ORIENTED_EDGE('',*,*,#468,.F.);
#470=CARTESIAN_POINT('',(13.63602996,-44.16252286,39.736469244));
#471=DIRECTION('',(0.,-1.,0.));
#472=VECTOR('',#471,1.38);
#473=LINE('',#470,#472);
#474=EDGE_CURVE('',#445,#463,#473,.T.);
#475=ORIENTED_EDGE('',*,*,#474,.F.);
#476=EDGE_LOOP('',(#453,#461,#469,#475));
#477=FACE_BOUND('',#476,.T.);
#478=ADVANCED_FACE('',(#477),#443,.T.);
#479=CARTESIAN_POINT('',(14.28602996,-46.33252286,39.936469244));
#480=DIRECTION('',(0.,-1.,0.));
#481=DIRECTION('',(1.,0.,0.));
#482=AXIS2_PLACEMENT_3D('',#479,#480,#481);
#483=PLANE('',#482);
#484=CARTESIAN_POINT('',(12.665686104,-46.33252286,39.802270883));
#485=VERTEX_POINT('',#484);
#486=CARTESIAN_POINT('',(12.63602996,-46.33252286,39.586469254));
#487=VERTEX_POINT('',#486);
#488=CARTESIAN_POINT('',(13.43602996,-46.33252286,39.586469254));
#489=DIRECTION('',(0.,-1.,0.));
#490=DIRECTION('',(0.,-0.,-1.));
#491=AXIS2_PLACEMENT_3D('',#488,#489,#490);
#492=CIRCLE('',#491,0.8);
#493=EDGE_CURVE('',#485,#487,#492,.T.);
#494=ORIENTED_EDGE('',*,*,#493,.T.);
#495=CARTESIAN_POINT('',(12.792340365,-46.33252286,39.111428514));
#496=VERTEX_POINT('',#495);
#497=CARTESIAN_POINT('',(13.43602996,-46.33252286,39.586469254));
#498=DIRECTION('',(0.,-1.,0.));
#499=DIRECTION('',(0.,-0.,-1.));
#500=AXIS2_PLACEMENT_3D('',#497,#498,#499);
#501=CIRCLE('',#500,0.8);
#502=EDGE_CURVE('',#487,#496,#501,.T.);
#503=ORIENTED_EDGE('',*,*,#502,.T.);
#504=CARTESIAN_POINT('',(14.175278766,-46.33252286,41.086469234));
#505=VERTEX_POINT('',#504);
#506=CARTESIAN_POINT('',(12.792340365,-46.33252286,39.111428514));
#507=DIRECTION('',(0.573576436,0.,0.819152044));
#508=VECTOR('',#507,2.411079523);
#509=LINE('',#506,#508);
#510=EDGE_CURVE('',#496,#505,#509,.T.);
#511=ORIENTED_EDGE('',*,*,#510,.T.);
#512=CARTESIAN_POINT('',(13.56489147,-46.33252286,41.086469234));
#513=VERTEX_POINT('',#512);
#514=CARTESIAN_POINT('',(13.56489147,-46.33252286,41.086469234));
#515=DIRECTION('',(1.,0.,-0.));
#516=VECTOR('',#515,0.610387296);
#517=LINE('',#514,#516);
#518=EDGE_CURVE('',#513,#505,#517,.T.);
#519=ORIENTED_EDGE('',*,*,#518,.F.);
#520=CARTESIAN_POINT('',(13.56489147,-46.33252286,41.086469234));
#521=DIRECTION('',(-0.573576436,-0.,-0.819152044));
#522=VECTOR('',#521,1.567716714);
#523=LINE('',#520,#522);
#524=EDGE_CURVE('',#513,#485,#523,.T.);
#525=ORIENTED_EDGE('',*,*,#524,.T.);
#526=EDGE_LOOP('',(#494,#503,#511,#519,#525));
#527=FACE_BOUND('',#526,.T.);
#528=ADVANCED_FACE('',(#527),#483,.T.);
#529=CARTESIAN_POINT('',(14.28602996,-46.56252286,41.086469234));
#530=DIRECTION('',(0.,0.,1.));
#531=DIRECTION('',(0.,-1.,0.));
#532=AXIS2_PLACEMENT_3D('',#529,#530,#531);
#533=PLANE('',#532);
#534=ORIENTED_EDGE('',*,*,#80,.T.);
#535=CARTESIAN_POINT('',(15.13602996,-44.76252286,41.086469234));
#536=VERTEX_POINT('',#535);
#537=CARTESIAN_POINT('',(15.13602996,-46.33252286,41.086469234));
#538=DIRECTION('',(-0.,1.,-0.));
#539=VECTOR('',#538,1.57);
#540=LINE('',#537,#539);
#541=EDGE_CURVE('',#68,#536,#540,.T.);
#542=ORIENTED_EDGE('',*,*,#541,.T.);
#543=CARTESIAN_POINT('',(13.43602996,-44.76252286,41.086469234));
#544=VERTEX_POINT('',#543);
#545=CARTESIAN_POINT('',(13.43602996,-44.76252286,41.086469234));
#546=DIRECTION('',(1.,0.,-0.));
#547=VECTOR('',#546,1.7);
#548=LINE('',#545,#547);
#549=EDGE_CURVE('',#544,#536,#548,.T.);
#550=ORIENTED_EDGE('',*,*,#549,.F.);
#551=CARTESIAN_POINT('',(13.43602996,-45.94252286,41.086469234));
#552=VERTEX_POINT('',#551);
#553=CARTESIAN_POINT('',(13.43602996,-44.76252286,41.086469234));
#554=DIRECTION('',(0.,-1.,0.));
#555=VECTOR('',#554,1.18);
#556=LINE('',#553,#555);
#557=EDGE_CURVE('',#544,#552,#556,.T.);
#558=ORIENTED_EDGE('',*,*,#557,.T.);
#559=CARTESIAN_POINT('',(13.56489147,-45.94252286,41.086469234));
#560=VERTEX_POINT('',#559);
#561=CARTESIAN_POINT('',(13.43602996,-45.94252286,41.086469234));
#562=DIRECTION('',(1.,0.,-0.));
#563=VECTOR('',#562,0.128861509);
#564=LINE('',#561,#563);
#565=EDGE_CURVE('',#552,#560,#564,.T.);
#566=ORIENTED_EDGE('',*,*,#565,.T.);
#567=CARTESIAN_POINT('',(13.56489147,-45.94252286,41.086469234));
#568=DIRECTION('',(0.,-1.,0.));
#569=VECTOR('',#568,0.39);
#570=LINE('',#567,#569);
#571=EDGE_CURVE('',#560,#513,#570,.T.);
#572=ORIENTED_EDGE('',*,*,#571,.T.);
#573=ORIENTED_EDGE('',*,*,#518,.T.);
#574=CARTESIAN_POINT('',(14.175278766,-45.94252286,41.086469234));
#575=VERTEX_POINT('',#574);
#576=CARTESIAN_POINT('',(14.175278766,-45.94252286,41.086469234));
#577=DIRECTION('',(0.,-1.,0.));
#578=VECTOR('',#577,0.39);
#579=LINE('',#576,#578);
#580=EDGE_CURVE('',#575,#505,#579,.T.);
#581=ORIENTED_EDGE('',*,*,#580,.F.);
#582=CARTESIAN_POINT('',(14.175278766,-45.94252286,41.086469234));
#583=DIRECTION('',(1.,0.,-0.));
#584=VECTOR('',#583,0.610387294);
#585=LINE('',#582,#584);
#586=EDGE_CURVE('',#575,#170,#585,.T.);
#587=ORIENTED_EDGE('',*,*,#586,.T.);
#588=ORIENTED_EDGE('',*,*,#190,.T.);
#589=EDGE_LOOP('',(#534,#542,#550,#558,#566,#572,#573,#581,#587,#588));
#590=FACE_BOUND('',#589,.T.);
#591=ADVANCED_FACE('',(#590),#533,.T.);
#592=CARTESIAN_POINT('',(13.43602996,-46.56252286,39.586469254));
#593=DIRECTION('',(0.,1.,-0.));
#594=DIRECTION('',(-1.,0.,0.));
#595=AXIS2_PLACEMENT_3D('',#592,#593,#594);
#596=CYLINDRICAL_SURFACE('',#595,0.8);
#597=CARTESIAN_POINT('',(12.63602996,-45.94252286,39.586469254));
#598=VERTEX_POINT('',#597);
#599=CARTESIAN_POINT('',(12.63602996,-45.94252286,39.586469254));
#600=DIRECTION('',(-0.,-1.,0.));
#601=VECTOR('',#600,0.39);
#602=LINE('',#599,#601);
#603=EDGE_CURVE('',#598,#487,#602,.T.);
#604=ORIENTED_EDGE('',*,*,#603,.T.);
#605=ORIENTED_EDGE('',*,*,#493,.F.);
#606=CARTESIAN_POINT('',(12.665686104,-45.94252286,39.802270883));
#607=VERTEX_POINT('',#606);
#608=CARTESIAN_POINT('',(12.665686104,-45.94252286,39.802270883));
#609=DIRECTION('',(-0.,-1.,0.));
#610=VECTOR('',#609,0.39);
#611=LINE('',#608,#610);
#612=EDGE_CURVE('',#607,#485,#611,.T.);
#613=ORIENTED_EDGE('',*,*,#612,.F.);
#614=CARTESIAN_POINT('',(13.43602996,-45.94252286,39.586469254));
#615=DIRECTION('',(-0.,1.,-0.));
#616=DIRECTION('',(0.,-0.,-1.));
#617=AXIS2_PLACEMENT_3D('',#614,#615,#616);
#618=CIRCLE('',#617,0.8);
#619=EDGE_CURVE('',#598,#607,#618,.T.);
#620=ORIENTED_EDGE('',*,*,#619,.F.);
#621=EDGE_LOOP('',(#604,#605,#613,#620));
#622=FACE_BOUND('',#621,.T.);
#623=ADVANCED_FACE('',(#622),#596,.T.);
#624=CARTESIAN_POINT('',(14.28602996,-46.33252286,39.936469244));
#625=DIRECTION('',(0.,-1.,0.));
#626=DIRECTION('',(1.,0.,0.));
#627=AXIS2_PLACEMENT_3D('',#624,#625,#626);
#628=PLANE('',#627);
#629=CARTESIAN_POINT('',(15.93602996,-46.33252286,40.286469234));
#630=VERTEX_POINT('',#629);
#631=CARTESIAN_POINT('',(15.93602996,-46.33252286,40.114188954));
#632=VERTEX_POINT('',#631);
#633=CARTESIAN_POINT('',(15.93602996,-46.33252286,40.286469234));
#634=DIRECTION('',(0.,-0.,-1.));
#635=VECTOR('',#634,0.17228028);
#636=LINE('',#633,#635);
#637=EDGE_CURVE('',#630,#632,#636,.T.);
#638=ORIENTED_EDGE('',*,*,#637,.F.);
#639=CARTESIAN_POINT('',(15.779299707,-46.33252286,40.762078352));
#640=VERTEX_POINT('',#639);
#641=CARTESIAN_POINT('',(15.13602996,-46.33252286,40.286469234));
#642=DIRECTION('',(0.,-1.,0.));
#643=DIRECTION('',(0.,-0.,-1.));
#644=AXIS2_PLACEMENT_3D('',#641,#642,#643);
#645=CIRCLE('',#644,0.8);
#646=EDGE_CURVE('',#630,#640,#645,.T.);
#647=ORIENTED_EDGE('',*,*,#646,.T.);
#648=CARTESIAN_POINT('',(15.779299707,-46.33252286,40.762078352));
#649=DIRECTION('',(-0.573576436,-0.,-0.819152044));
#650=VECTOR('',#649,2.411773384);
#651=LINE('',#648,#650);
#652=EDGE_CURVE('',#640,#132,#651,.T.);
#653=ORIENTED_EDGE('',*,*,#652,.T.);
#654=ORIENTED_EDGE('',*,*,#137,.F.);
#655=CARTESIAN_POINT('',(15.006350619,-46.33252286,38.786469254));
#656=DIRECTION('',(0.573576436,0.,0.819152044));
#657=VECTOR('',#656,1.62084647);
#658=LINE('',#655,#657);
#659=EDGE_CURVE('',#124,#632,#658,.T.);
#660=ORIENTED_EDGE('',*,*,#659,.T.);
#661=EDGE_LOOP('',(#638,#647,#653,#654,#660));
#662=FACE_BOUND('',#661,.T.);
#663=ADVANCED_FACE('',(#662),#628,.T.);
#664=CARTESIAN_POINT('',(12.63602996,-46.56252286,39.936469244));
#665=DIRECTION('',(-1.,0.,0.));
#666=DIRECTION('',(0.,-1.,0.));
#667=AXIS2_PLACEMENT_3D('',#664,#665,#666);
#668=PLANE('',#667);
#669=CARTESIAN_POINT('',(12.63602996,-45.94252286,40.286469234));
#670=VERTEX_POINT('',#669);
#671=CARTESIAN_POINT('',(12.63602996,-45.94252286,39.586469254));
#672=DIRECTION('',(0.,0.,1.));
#673=VECTOR('',#672,0.69999998);
#674=LINE('',#671,#673);
#675=EDGE_CURVE('',#598,#670,#674,.T.);
#676=ORIENTED_EDGE('',*,*,#675,.T.);
#677=CARTESIAN_POINT('',(12.63602996,-44.76252286,40.286469234));
#678=VERTEX_POINT('',#677);
#679=CARTESIAN_POINT('',(12.63602996,-45.94252286,40.286469234));
#680=DIRECTION('',(-0.,1.,-0.));
#681=VECTOR('',#680,1.18);
#682=LINE('',#679,#681);
#683=EDGE_CURVE('',#670,#678,#682,.T.);
#684=ORIENTED_EDGE('',*,*,#683,.T.);
#685=CARTESIAN_POINT('',(12.63602996,-44.76252286,39.586469254));
#686=VERTEX_POINT('',#685);
#687=CARTESIAN_POINT('',(12.63602996,-44.76252286,39.586469254));
#688=DIRECTION('',(0.,0.,1.));
#689=VECTOR('',#688,0.69999998);
#690=LINE('',#687,#689);
#691=EDGE_CURVE('',#686,#678,#690,.T.);
#692=ORIENTED_EDGE('',*,*,#691,.F.);
#693=CARTESIAN_POINT('',(12.63602996,-44.76252286,39.586469254));
#694=DIRECTION('',(0.,-1.,0.));
#695=VECTOR('',#694,1.18);
#696=LINE('',#693,#695);
#697=EDGE_CURVE('',#686,#598,#696,.T.);
#698=ORIENTED_EDGE('',*,*,#697,.T.);
#699=EDGE_LOOP('',(#676,#684,#692,#698));
#700=FACE_BOUND('',#699,.T.);
#701=ADVANCED_FACE('',(#700),#668,.T.);
#702=CARTESIAN_POINT('',(15.93602996,-46.56252286,39.936469244));
#703=DIRECTION('',(1.,0.,0.));
#704=DIRECTION('',(0.,1.,-0.));
#705=AXIS2_PLACEMENT_3D('',#702,#703,#704);
#706=PLANE('',#705);
#707=CARTESIAN_POINT('',(15.93602996,-44.76252286,40.286469234));
#708=VERTEX_POINT('',#707);
#709=CARTESIAN_POINT('',(15.93602996,-44.76252286,39.586469254));
#710=VERTEX_POINT('',#709);
#711=CARTESIAN_POINT('',(15.93602996,-44.76252286,40.286469234));
#712=DIRECTION('',(0.,-0.,-1.));
#713=VECTOR('',#712,0.69999998);
#714=LINE('',#711,#713);
#715=EDGE_CURVE('',#708,#710,#714,.T.);
#716=ORIENTED_EDGE('',*,*,#715,.F.);
#717=CARTESIAN_POINT('',(15.93602996,-44.76252286,40.286469234));
#718=DIRECTION('',(0.,-1.,0.));
#719=VECTOR('',#718,1.57);
#720=LINE('',#717,#719);
#721=EDGE_CURVE('',#708,#630,#720,.T.);
#722=ORIENTED_EDGE('',*,*,#721,.T.);
#723=ORIENTED_EDGE('',*,*,#637,.T.);
#724=CARTESIAN_POINT('',(15.93602996,-45.94252286,40.114188954));
#725=VERTEX_POINT('',#724);
#726=CARTESIAN_POINT('',(15.93602996,-46.33252286,40.114188954));
#727=DIRECTION('',(0.,1.,-0.));
#728=VECTOR('',#727,0.39);
#729=LINE('',#726,#728);
#730=EDGE_CURVE('',#632,#725,#729,.T.);
#731=ORIENTED_EDGE('',*,*,#730,.T.);
#732=CARTESIAN_POINT('',(15.93602996,-45.94252286,39.586469254));
#733=VERTEX_POINT('',#732);
#734=CARTESIAN_POINT('',(15.93602996,-45.94252286,40.114188954));
#735=DIRECTION('',(0.,-0.,-1.));
#736=VECTOR('',#735,0.527719699);
#737=LINE('',#734,#736);
#738=EDGE_CURVE('',#725,#733,#737,.T.);
#739=ORIENTED_EDGE('',*,*,#738,.T.);
#740=CARTESIAN_POINT('',(15.93602996,-45.94252286,39.586469254));
#741=DIRECTION('',(0.,1.,-0.));
#742=VECTOR('',#741,1.18);
#743=LINE('',#740,#742);
#744=EDGE_CURVE('',#733,#710,#743,.T.);
#745=ORIENTED_EDGE('',*,*,#744,.T.);
#746=EDGE_LOOP('',(#716,#722,#723,#731,#739,#745));
#747=FACE_BOUND('',#746,.T.);
#748=ADVANCED_FACE('',(#747),#706,.T.);
#749=CARTESIAN_POINT('',(13.636029972,-45.54252286,39.386469254));
#750=DIRECTION('',(0.,-1.,0.));
#751=DIRECTION('',(0.,0.,1.));
#752=AXIS2_PLACEMENT_3D('',#749,#750,#751);
#753=PLANE('',#752);
#754=CARTESIAN_POINT('',(14.849389718,-45.54252286,39.736469244));
#755=DIRECTION('',(1.,0.,-0.));
#756=VECTOR('',#755,0.086640243);
#757=LINE('',#754,#756);
#758=EDGE_CURVE('',#273,#423,#757,.T.);
#759=ORIENTED_EDGE('',*,*,#758,.F.);
#760=ORIENTED_EDGE('',*,*,#278,.T.);
#761=ORIENTED_EDGE('',*,*,#216,.F.);
#762=ORIENTED_EDGE('',*,*,#246,.F.);
#763=CARTESIAN_POINT('',(13.722670203,-45.54252286,39.736469244));
#764=DIRECTION('',(-1.,0.,0.));
#765=VECTOR('',#764,0.086640242);
#766=LINE('',#763,#765);
#767=EDGE_CURVE('',#241,#463,#766,.T.);
#768=ORIENTED_EDGE('',*,*,#767,.T.);
#769=ORIENTED_EDGE('',*,*,#468,.T.);
#770=CARTESIAN_POINT('',(13.722670203,-45.54252286,40.136469244));
#771=DIRECTION('',(-1.,0.,0.));
#772=VECTOR('',#771,0.086640242);
#773=LINE('',#770,#772);
#774=EDGE_CURVE('',#383,#455,#773,.T.);
#775=ORIENTED_EDGE('',*,*,#774,.F.);
#776=ORIENTED_EDGE('',*,*,#388,.F.);
#777=ORIENTED_EDGE('',*,*,#326,.T.);
#778=ORIENTED_EDGE('',*,*,#363,.T.);
#779=CARTESIAN_POINT('',(14.849389718,-45.54252286,40.136469244));
#780=DIRECTION('',(1.,0.,-0.));
#781=VECTOR('',#780,0.086640243);
#782=LINE('',#779,#781);
#783=EDGE_CURVE('',#352,#405,#782,.T.);
#784=ORIENTED_EDGE('',*,*,#783,.T.);
#785=ORIENTED_EDGE('',*,*,#434,.F.);
#786=EDGE_LOOP('',(#759,#760,#761,#762,#768,#769,#775,#776,#777,#778,#784,#785));
#787=FACE_BOUND('',#786,.T.);
#788=ADVANCED_FACE('',(#787),#753,.F.);
#789=CARTESIAN_POINT('',(14.28602996,-44.76252286,39.936469244));
#790=DIRECTION('',(0.,-1.,0.));
#791=DIRECTION('',(1.,0.,0.));
#792=AXIS2_PLACEMENT_3D('',#789,#790,#791);
#793=PLANE('',#792);
#794=ORIENTED_EDGE('',*,*,#105,.T.);
#795=CARTESIAN_POINT('',(13.43602996,-44.76252286,39.586469254));
#796=DIRECTION('',(0.,1.,-0.));
#797=DIRECTION('',(-1.,0.,0.));
#798=AXIS2_PLACEMENT_3D('',#795,#796,#797);
#799=CIRCLE('',#798,0.8);
#800=EDGE_CURVE('',#92,#686,#799,.T.);
#801=ORIENTED_EDGE('',*,*,#800,.T.);
#802=ORIENTED_EDGE('',*,*,#691,.T.);
#803=CARTESIAN_POINT('',(13.43602996,-44.76252286,40.286469234));
#804=DIRECTION('',(0.,1.,-0.));
#805=DIRECTION('',(-1.,0.,0.));
#806=AXIS2_PLACEMENT_3D('',#803,#804,#805);
#807=CIRCLE('',#806,0.8);
#808=EDGE_CURVE('',#678,#544,#807,.T.);
#809=ORIENTED_EDGE('',*,*,#808,.T.);
#810=ORIENTED_EDGE('',*,*,#549,.T.);
#811=CARTESIAN_POINT('',(15.13602996,-44.76252286,40.286469234));
#812=DIRECTION('',(-0.,1.,-0.));
#813=DIRECTION('',(0.,-0.,-1.));
#814=AXIS2_PLACEMENT_3D('',#811,#812,#813);
#815=CIRCLE('',#814,0.8);
#816=EDGE_CURVE('',#536,#708,#815,.T.);
#817=ORIENTED_EDGE('',*,*,#816,.T.);
#818=ORIENTED_EDGE('',*,*,#715,.T.);
#819=CARTESIAN_POINT('',(15.13602996,-44.76252286,39.586469254));
#820=DIRECTION('',(0.,1.,-0.));
#821=DIRECTION('',(-1.,0.,0.));
#822=AXIS2_PLACEMENT_3D('',#819,#820,#821);
#823=CIRCLE('',#822,0.8);
#824=EDGE_CURVE('',#710,#100,#823,.T.);
#825=ORIENTED_EDGE('',*,*,#824,.T.);
#826=EDGE_LOOP('',(#794,#801,#802,#809,#810,#817,#818,#825));
#827=FACE_BOUND('',#826,.T.);
#828=CARTESIAN_POINT('',(12.63602996,-44.76252286,41.586469244));
#829=VERTEX_POINT('',#828);
#830=CARTESIAN_POINT('',(15.93602996,-44.76252286,41.586469244));
#831=VERTEX_POINT('',#830);
#832=CARTESIAN_POINT('',(12.63602996,-44.76252286,41.586469244));
#833=DIRECTION('',(1.,0.,-0.));
#834=VECTOR('',#833,3.3);
#835=LINE('',#832,#834);
#836=EDGE_CURVE('',#829,#831,#835,.T.);
#837=ORIENTED_EDGE('',*,*,#836,.F.);
#838=CARTESIAN_POINT('',(11.13602996,-44.76252286,40.086469244));
#839=VERTEX_POINT('',#838);
#840=CARTESIAN_POINT('',(12.63602996,-44.76252286,40.086469244));
#841=DIRECTION('',(0.,-1.,0.));
#842=DIRECTION('',(1.,0.,0.));
#843=AXIS2_PLACEMENT_3D('',#840,#841,#842);
#844=CIRCLE('',#843,1.5);
#845=EDGE_CURVE('',#829,#839,#844,.T.);
#846=ORIENTED_EDGE('',*,*,#845,.T.);
#847=CARTESIAN_POINT('',(11.13602996,-44.76252286,39.786469244));
#848=VERTEX_POINT('',#847);
#849=CARTESIAN_POINT('',(11.13602996,-44.76252286,39.786469244));
#850=DIRECTION('',(0.,0.,1.));
#851=VECTOR('',#850,0.3);
#852=LINE('',#849,#851);
#853=EDGE_CURVE('',#848,#839,#852,.T.);
#854=ORIENTED_EDGE('',*,*,#853,.F.);
#855=CARTESIAN_POINT('',(12.63602996,-44.76252286,38.286469244));
#856=VERTEX_POINT('',#855);
#857=CARTESIAN_POINT('',(12.63602996,-44.76252286,39.786469244));
#858=DIRECTION('',(0.,-1.,0.));
#859=DIRECTION('',(1.,0.,0.));
#860=AXIS2_PLACEMENT_3D('',#857,#858,#859);
#861=CIRCLE('',#860,1.5);
#862=EDGE_CURVE('',#848,#856,#861,.T.);
#863=ORIENTED_EDGE('',*,*,#862,.T.);
#864=CARTESIAN_POINT('',(15.93602996,-44.76252286,38.286469244));
#865=VERTEX_POINT('',#864);
#866=CARTESIAN_POINT('',(15.93602996,-44.76252286,38.286469244));
#867=DIRECTION('',(-1.,0.,0.));
#868=VECTOR('',#867,3.3);
#869=LINE('',#866,#868);
#870=EDGE_CURVE('',#865,#856,#869,.T.);
#871=ORIENTED_EDGE('',*,*,#870,.F.);
#872=CARTESIAN_POINT('',(17.43602996,-44.76252286,39.786469244));
#873=VERTEX_POINT('',#872);
#874=CARTESIAN_POINT('',(15.93602996,-44.76252286,39.786469244));
#875=DIRECTION('',(0.,-1.,0.));
#876=DIRECTION('',(1.,0.,0.));
#877=AXIS2_PLACEMENT_3D('',#874,#875,#876);
#878=CIRCLE('',#877,1.5);
#879=EDGE_CURVE('',#865,#873,#878,.T.);
#880=ORIENTED_EDGE('',*,*,#879,.T.);
#881=CARTESIAN_POINT('',(17.43602996,-44.76252286,40.086469244));
#882=VERTEX_POINT('',#881);
#883=CARTESIAN_POINT('',(17.43602996,-44.76252286,40.086469244));
#884=DIRECTION('',(0.,-0.,-1.));
#885=VECTOR('',#884,0.3);
#886=LINE('',#883,#885);
#887=EDGE_CURVE('',#882,#873,#886,.T.);
#888=ORIENTED_EDGE('',*,*,#887,.F.);
#889=CARTESIAN_POINT('',(15.93602996,-44.76252286,40.086469244));
#890=DIRECTION('',(0.,-1.,0.));
#891=DIRECTION('',(1.,0.,0.));
#892=AXIS2_PLACEMENT_3D('',#889,#890,#891);
#893=CIRCLE('',#892,1.5);
#894=EDGE_CURVE('',#882,#831,#893,.T.);
#895=ORIENTED_EDGE('',*,*,#894,.T.);
#896=EDGE_LOOP('',(#837,#846,#854,#863,#871,#880,#888,#895));
#897=FACE_BOUND('',#896,.T.);
#898=ADVANCED_FACE('',(#827,#897),#793,.T.);
#899=CARTESIAN_POINT('',(17.43602996,-44.16252286,39.936469244));
#900=DIRECTION('',(-1.,0.,0.));
#901=DIRECTION('',(0.,-1.,0.));
#902=AXIS2_PLACEMENT_3D('',#899,#900,#901);
#903=PLANE('',#902);
#904=ORIENTED_EDGE('',*,*,#887,.T.);
#905=CARTESIAN_POINT('',(17.43602996,-44.16252286,39.786469244));
#906=VERTEX_POINT('',#905);
#907=CARTESIAN_POINT('',(17.43602996,-44.76252286,39.786469244));
#908=DIRECTION('',(-0.,1.,-0.));
#909=VECTOR('',#908,0.6);
#910=LINE('',#907,#909);
#911=EDGE_CURVE('',#873,#906,#910,.T.);
#912=ORIENTED_EDGE('',*,*,#911,.T.);
#913=CARTESIAN_POINT('',(17.43602996,-44.16252286,40.086469244));
#914=VERTEX_POINT('',#913);
#915=CARTESIAN_POINT('',(17.43602996,-44.16252286,40.086469244));
#916=DIRECTION('',(0.,-0.,-1.));
#917=VECTOR('',#916,0.3);
#918=LINE('',#915,#917);
#919=EDGE_CURVE('',#914,#906,#918,.T.);
#920=ORIENTED_EDGE('',*,*,#919,.F.);
#921=CARTESIAN_POINT('',(17.43602996,-44.16252286,40.086469244));
#922=DIRECTION('',(0.,-1.,0.));
#923=VECTOR('',#922,0.6);
#924=LINE('',#921,#923);
#925=EDGE_CURVE('',#914,#882,#924,.T.);
#926=ORIENTED_EDGE('',*,*,#925,.T.);
#927=EDGE_LOOP('',(#904,#912,#920,#926));
#928=FACE_BOUND('',#927,.T.);
#929=ADVANCED_FACE('',(#928),#903,.F.);
#930=CARTESIAN_POINT('',(14.28602996,-44.16252286,41.586469244));
#931=DIRECTION('',(0.,-0.,-1.));
#932=DIRECTION('',(0.,1.,-0.));
#933=AXIS2_PLACEMENT_3D('',#930,#931,#932);
#934=PLANE('',#933);
#935=CARTESIAN_POINT('',(12.63602996,-44.16252286,41.586469244));
#936=VERTEX_POINT('',#935);
#937=CARTESIAN_POINT('',(15.93602996,-44.16252286,41.586469244));
#938=VERTEX_POINT('',#937);
#939=CARTESIAN_POINT('',(12.63602996,-44.16252286,41.586469244));
#940=DIRECTION('',(1.,0.,-0.));
#941=VECTOR('',#940,3.3);
#942=LINE('',#939,#941);
#943=EDGE_CURVE('',#936,#938,#942,.T.);
#944=ORIENTED_EDGE('',*,*,#943,.F.);
#945=CARTESIAN_POINT('',(12.63602996,-44.16252286,41.586469244));
#946=DIRECTION('',(-0.,-1.,0.));
#947=VECTOR('',#946,0.6);
#948=LINE('',#945,#947);
#949=EDGE_CURVE('',#936,#829,#948,.T.);
#950=ORIENTED_EDGE('',*,*,#949,.T.);
#951=ORIENTED_EDGE('',*,*,#836,.T.);
#952=CARTESIAN_POINT('',(15.93602996,-44.76252286,41.586469244));
#953=DIRECTION('',(0.,1.,-0.));
#954=VECTOR('',#953,0.6);
#955=LINE('',#952,#954);
#956=EDGE_CURVE('',#831,#938,#955,.T.);
#957=ORIENTED_EDGE('',*,*,#956,.T.);
#958=EDGE_LOOP('',(#944,#950,#951,#957));
#959=FACE_BOUND('',#958,.T.);
#960=ADVANCED_FACE('',(#959),#934,.F.);
#961=CARTESIAN_POINT('',(11.13602996,-44.16252286,39.936469244));
#962=DIRECTION('',(1.,0.,0.));
#963=DIRECTION('',(0.,1.,-0.));
#964=AXIS2_PLACEMENT_3D('',#961,#962,#963);
#965=PLANE('',#964);
#966=ORIENTED_EDGE('',*,*,#853,.T.);
#967=CARTESIAN_POINT('',(11.13602996,-44.16252286,40.086469244));
#968=VERTEX_POINT('',#967);
#969=CARTESIAN_POINT('',(11.13602996,-44.76252286,40.086469244));
#970=DIRECTION('',(0.,1.,-0.));
#971=VECTOR('',#970,0.6);
#972=LINE('',#969,#971);
#973=EDGE_CURVE('',#839,#968,#972,.T.);
#974=ORIENTED_EDGE('',*,*,#973,.T.);
#975=CARTESIAN_POINT('',(11.13602996,-44.16252286,39.786469244));
#976=VERTEX_POINT('',#975);
#977=CARTESIAN_POINT('',(11.13602996,-44.16252286,39.786469244));
#978=DIRECTION('',(0.,0.,1.));
#979=VECTOR('',#978,0.3);
#980=LINE('',#977,#979);
#981=EDGE_CURVE('',#976,#968,#980,.T.);
#982=ORIENTED_EDGE('',*,*,#981,.F.);
#983=CARTESIAN_POINT('',(11.13602996,-44.16252286,39.786469244));
#984=DIRECTION('',(-0.,-1.,0.));
#985=VECTOR('',#984,0.6);
#986=LINE('',#983,#985);
#987=EDGE_CURVE('',#976,#848,#986,.T.);
#988=ORIENTED_EDGE('',*,*,#987,.T.);
#989=EDGE_LOOP('',(#966,#974,#982,#988));
#990=FACE_BOUND('',#989,.T.);
#991=ADVANCED_FACE('',(#990),#965,.F.);
#992=CARTESIAN_POINT('',(14.28602996,-44.16252286,38.286469244));
#993=DIRECTION('',(0.,0.,1.));
#994=DIRECTION('',(0.,-1.,0.));
#995=AXIS2_PLACEMENT_3D('',#992,#993,#994);
#996=PLANE('',#995);
#997=ORIENTED_EDGE('',*,*,#870,.T.);
#998=CARTESIAN_POINT('',(12.63602996,-44.16252286,38.286469244));
#999=VERTEX_POINT('',#998);
#1000=CARTESIAN_POINT('',(12.63602996,-44.76252286,38.286469244));
#1001=DIRECTION('',(-0.,1.,-0.));
#1002=VECTOR('',#1001,0.6);
#1003=LINE('',#1000,#1002);
#1004=EDGE_CURVE('',#856,#999,#1003,.T.);
#1005=ORIENTED_EDGE('',*,*,#1004,.T.);
#1006=CARTESIAN_POINT('',(15.93602996,-44.16252286,38.286469244));
#1007=VERTEX_POINT('',#1006);
#1008=CARTESIAN_POINT('',(15.93602996,-44.16252286,38.286469244));
#1009=DIRECTION('',(-1.,0.,0.));
#1010=VECTOR('',#1009,3.3);
#1011=LINE('',#1008,#1010);
#1012=EDGE_CURVE('',#1007,#999,#1011,.T.);
#1013=ORIENTED_EDGE('',*,*,#1012,.F.);
#1014=CARTESIAN_POINT('',(15.93602996,-44.16252286,38.286469244));
#1015=DIRECTION('',(0.,-1.,0.));
#1016=VECTOR('',#1015,0.6);
#1017=LINE('',#1014,#1016);
#1018=EDGE_CURVE('',#1007,#865,#1017,.T.);
#1019=ORIENTED_EDGE('',*,*,#1018,.T.);
#1020=EDGE_LOOP('',(#997,#1005,#1013,#1019));
#1021=FACE_BOUND('',#1020,.T.);
#1022=ADVANCED_FACE('',(#1021),#996,.F.);
#1023=CARTESIAN_POINT('',(14.38602996,-44.16252286,39.936469244));
#1024=DIRECTION('',(0.,-1.,0.));
#1025=DIRECTION('',(1.,0.,0.));
#1026=AXIS2_PLACEMENT_3D('',#1023,#1024,#1025);
#1027=PLANE('',#1026);
#1028=ORIENTED_EDGE('',*,*,#255,.F.);
#1029=ORIENTED_EDGE('',*,*,#230,.T.);
#1030=ORIENTED_EDGE('',*,*,#292,.T.);
#1031=CARTESIAN_POINT('',(14.93602996,-44.16252286,39.736469244));
#1032=DIRECTION('',(-1.,0.,0.));
#1033=VECTOR('',#1032,0.000390243);
#1034=LINE('',#1031,#1033);
#1035=EDGE_CURVE('',#415,#281,#1034,.T.);
#1036=ORIENTED_EDGE('',*,*,#1035,.F.);
#1037=ORIENTED_EDGE('',*,*,#420,.T.);
#1038=CARTESIAN_POINT('',(14.93602996,-44.16252286,40.136469244));
#1039=DIRECTION('',(-1.,0.,0.));
#1040=VECTOR('',#1039,0.000390243);
#1041=LINE('',#1038,#1040);
#1042=EDGE_CURVE('',#407,#344,#1041,.T.);
#1043=ORIENTED_EDGE('',*,*,#1042,.T.);
#1044=ORIENTED_EDGE('',*,*,#349,.T.);
#1045=ORIENTED_EDGE('',*,*,#310,.F.);
#1046=ORIENTED_EDGE('',*,*,#379,.F.);
#1047=CARTESIAN_POINT('',(13.63602996,-44.16252286,40.136469244));
#1048=DIRECTION('',(1.,0.,-0.));
#1049=VECTOR('',#1048,0.000390243);
#1050=LINE('',#1047,#1049);
#1051=EDGE_CURVE('',#447,#374,#1050,.T.);
#1052=ORIENTED_EDGE('',*,*,#1051,.F.);
#1053=ORIENTED_EDGE('',*,*,#452,.F.);
#1054=CARTESIAN_POINT('',(13.63602996,-44.16252286,39.736469244));
#1055=DIRECTION('',(1.,0.,-0.));
#1056=VECTOR('',#1055,0.000390243);
#1057=LINE('',#1054,#1056);
#1058=EDGE_CURVE('',#445,#250,#1057,.T.);
#1059=ORIENTED_EDGE('',*,*,#1058,.T.);
#1060=EDGE_LOOP('',(#1028,#1029,#1030,#1036,#1037,#1043,#1044,#1045,#1046,#1052,#1053,#1059));
#1061=FACE_BOUND('',#1060,.T.);
#1062=ORIENTED_EDGE('',*,*,#981,.T.);
#1063=CARTESIAN_POINT('',(12.63602996,-44.16252286,40.086469244));
#1064=DIRECTION('',(-0.,1.,-0.));
#1065=DIRECTION('',(1.,0.,0.));
#1066=AXIS2_PLACEMENT_3D('',#1063,#1064,#1065);
#1067=CIRCLE('',#1066,1.5);
#1068=EDGE_CURVE('',#968,#936,#1067,.T.);
#1069=ORIENTED_EDGE('',*,*,#1068,.T.);
#1070=ORIENTED_EDGE('',*,*,#943,.T.);
#1071=CARTESIAN_POINT('',(15.93602996,-44.16252286,40.086469244));
#1072=DIRECTION('',(-0.,1.,-0.));
#1073=DIRECTION('',(1.,0.,0.));
#1074=AXIS2_PLACEMENT_3D('',#1071,#1072,#1073);
#1075=CIRCLE('',#1074,1.5);
#1076=EDGE_CURVE('',#938,#914,#1075,.T.);
#1077=ORIENTED_EDGE('',*,*,#1076,.T.);
#1078=ORIENTED_EDGE('',*,*,#919,.T.);
#1079=CARTESIAN_POINT('',(15.93602996,-44.16252286,39.786469244));
#1080=DIRECTION('',(-0.,1.,-0.));
#1081=DIRECTION('',(1.,0.,0.));
#1082=AXIS2_PLACEMENT_3D('',#1079,#1080,#1081);
#1083=CIRCLE('',#1082,1.5);
#1084=EDGE_CURVE('',#906,#1007,#1083,.T.);
#1085=ORIENTED_EDGE('',*,*,#1084,.T.);
#1086=ORIENTED_EDGE('',*,*,#1012,.T.);
#1087=CARTESIAN_POINT('',(12.63602996,-44.16252286,39.786469244));
#1088=DIRECTION('',(-0.,1.,-0.));
#1089=DIRECTION('',(1.,0.,0.));
#1090=AXIS2_PLACEMENT_3D('',#1087,#1088,#1089);
#1091=CIRCLE('',#1090,1.5);
#1092=EDGE_CURVE('',#999,#976,#1091,.T.);
#1093=ORIENTED_EDGE('',*,*,#1092,.T.);
#1094=EDGE_LOOP('',(#1062,#1069,#1070,#1077,#1078,#1085,#1086,#1093));
#1095=FACE_BOUND('',#1094,.T.);
#1096=ADVANCED_FACE('',(#1061,#1095),#1027,.F.);
#1097=CARTESIAN_POINT('',(13.48602996,-44.96252286,40.136469244));
#1098=DIRECTION('',(0.,0.,1.));
#1099=DIRECTION('',(0.,-1.,0.));
#1100=AXIS2_PLACEMENT_3D('',#1097,#1098,#1099);
#1101=PLANE('',#1100);
#1102=ORIENTED_EDGE('',*,*,#460,.T.);
#1103=ORIENTED_EDGE('',*,*,#1051,.T.);
#1104=ORIENTED_EDGE('',*,*,#394,.F.);
#1105=ORIENTED_EDGE('',*,*,#774,.T.);
#1106=EDGE_LOOP('',(#1102,#1103,#1104,#1105));
#1107=FACE_BOUND('',#1106,.T.);
#1108=ADVANCED_FACE('',(#1107),#1101,.F.);
#1109=CARTESIAN_POINT('',(13.48602996,-44.96252286,39.736469244));
#1110=DIRECTION('',(0.,-0.,-1.));
#1111=DIRECTION('',(0.,1.,-0.));
#1112=AXIS2_PLACEMENT_3D('',#1109,#1110,#1111);
#1113=PLANE('',#1112);
#1114=ORIENTED_EDGE('',*,*,#474,.T.);
#1115=ORIENTED_EDGE('',*,*,#767,.F.);
#1116=ORIENTED_EDGE('',*,*,#261,.F.);
#1117=ORIENTED_EDGE('',*,*,#1058,.F.);
#1118=EDGE_LOOP('',(#1114,#1115,#1116,#1117));
#1119=FACE_BOUND('',#1118,.T.);
#1120=ADVANCED_FACE('',(#1119),#1113,.F.);
#1121=CARTESIAN_POINT('',(15.08602996,-44.96252286,40.136469244));
#1122=DIRECTION('',(0.,-0.,-1.));
#1123=DIRECTION('',(0.,1.,-0.));
#1124=AXIS2_PLACEMENT_3D('',#1121,#1122,#1123);
#1125=PLANE('',#1124);
#1126=ORIENTED_EDGE('',*,*,#412,.F.);
#1127=ORIENTED_EDGE('',*,*,#783,.F.);
#1128=ORIENTED_EDGE('',*,*,#357,.T.);
#1129=ORIENTED_EDGE('',*,*,#1042,.F.);
#1130=EDGE_LOOP('',(#1126,#1127,#1128,#1129));
#1131=FACE_BOUND('',#1130,.T.);
#1132=ADVANCED_FACE('',(#1131),#1125,.T.);
#1133=CARTESIAN_POINT('',(15.08602996,-44.96252286,39.736469244));
#1134=DIRECTION('',(0.,0.,1.));
#1135=DIRECTION('',(0.,-1.,0.));
#1136=AXIS2_PLACEMENT_3D('',#1133,#1134,#1135);
#1137=PLANE('',#1136);
#1138=ORIENTED_EDGE('',*,*,#428,.F.);
#1139=ORIENTED_EDGE('',*,*,#1035,.T.);
#1140=ORIENTED_EDGE('',*,*,#286,.T.);
#1141=ORIENTED_EDGE('',*,*,#758,.T.);
#1142=EDGE_LOOP('',(#1138,#1139,#1140,#1141));
#1143=FACE_BOUND('',#1142,.T.);
#1144=ADVANCED_FACE('',(#1143),#1137,.T.);
#1145=CARTESIAN_POINT('',(13.43602996,-46.56252286,40.286469234));
#1146=DIRECTION('',(0.,1.,-0.));
#1147=DIRECTION('',(-1.,0.,0.));
#1148=AXIS2_PLACEMENT_3D('',#1145,#1146,#1147);
#1149=CYLINDRICAL_SURFACE('',#1148,0.8);
#1150=CARTESIAN_POINT('',(13.43602996,-45.94252286,40.286469234));
#1151=DIRECTION('',(-0.,1.,-0.));
#1152=DIRECTION('',(0.,-0.,-1.));
#1153=AXIS2_PLACEMENT_3D('',#1150,#1151,#1152);
#1154=CIRCLE('',#1153,0.8);
#1155=EDGE_CURVE('',#670,#552,#1154,.T.);
#1156=ORIENTED_EDGE('',*,*,#1155,.T.);
#1157=ORIENTED_EDGE('',*,*,#557,.F.);
#1158=ORIENTED_EDGE('',*,*,#808,.F.);
#1159=ORIENTED_EDGE('',*,*,#683,.F.);
#1160=EDGE_LOOP('',(#1156,#1157,#1158,#1159));
#1161=FACE_BOUND('',#1160,.T.);
#1162=ADVANCED_FACE('',(#1161),#1149,.T.);
#1163=CARTESIAN_POINT('',(15.13602996,-46.56252286,39.586469254));
#1164=DIRECTION('',(0.,1.,-0.));
#1165=DIRECTION('',(-1.,0.,0.));
#1166=AXIS2_PLACEMENT_3D('',#1163,#1164,#1165);
#1167=CYLINDRICAL_SURFACE('',#1166,0.8);
#1168=CARTESIAN_POINT('',(15.13602996,-45.94252286,39.586469254));
#1169=DIRECTION('',(-0.,1.,-0.));
#1170=DIRECTION('',(0.,-0.,-1.));
#1171=AXIS2_PLACEMENT_3D('',#1168,#1169,#1170);
#1172=CIRCLE('',#1171,0.8);
#1173=EDGE_CURVE('',#733,#108,#1172,.T.);
#1174=ORIENTED_EDGE('',*,*,#1173,.T.);
#1175=ORIENTED_EDGE('',*,*,#113,.F.);
#1176=ORIENTED_EDGE('',*,*,#824,.F.);
#1177=ORIENTED_EDGE('',*,*,#744,.F.);
#1178=EDGE_LOOP('',(#1174,#1175,#1176,#1177));
#1179=FACE_BOUND('',#1178,.T.);
#1180=ADVANCED_FACE('',(#1179),#1167,.T.);
#1181=CARTESIAN_POINT('',(15.93602996,-44.16252286,40.086469244));
#1182=DIRECTION('',(0.,-1.,0.));
#1183=DIRECTION('',(1.,0.,0.));
#1184=AXIS2_PLACEMENT_3D('',#1181,#1182,#1183);
#1185=CYLINDRICAL_SURFACE('',#1184,1.5);
#1186=ORIENTED_EDGE('',*,*,#1076,.F.);
#1187=ORIENTED_EDGE('',*,*,#956,.F.);
#1188=ORIENTED_EDGE('',*,*,#894,.F.);
#1189=ORIENTED_EDGE('',*,*,#925,.F.);
#1190=EDGE_LOOP('',(#1186,#1187,#1188,#1189));
#1191=FACE_BOUND('',#1190,.T.);
#1192=ADVANCED_FACE('',(#1191),#1185,.T.);
#1193=CARTESIAN_POINT('',(15.93602996,-44.16252286,39.786469244));
#1194=DIRECTION('',(0.,-1.,0.));
#1195=DIRECTION('',(1.,0.,0.));
#1196=AXIS2_PLACEMENT_3D('',#1193,#1194,#1195);
#1197=CYLINDRICAL_SURFACE('',#1196,1.5);
#1198=ORIENTED_EDGE('',*,*,#1084,.F.);
#1199=ORIENTED_EDGE('',*,*,#911,.F.);
#1200=ORIENTED_EDGE('',*,*,#879,.F.);
#1201=ORIENTED_EDGE('',*,*,#1018,.F.);
#1202=EDGE_LOOP('',(#1198,#1199,#1200,#1201));
#1203=FACE_BOUND('',#1202,.T.);
#1204=ADVANCED_FACE('',(#1203),#1197,.T.);
#1205=CARTESIAN_POINT('',(12.63602996,-44.16252286,39.786469244));
#1206=DIRECTION('',(0.,-1.,0.));
#1207=DIRECTION('',(1.,0.,0.));
#1208=AXIS2_PLACEMENT_3D('',#1205,#1206,#1207);
#1209=CYLINDRICAL_SURFACE('',#1208,1.5);
#1210=ORIENTED_EDGE('',*,*,#1092,.F.);
#1211=ORIENTED_EDGE('',*,*,#1004,.F.);
#1212=ORIENTED_EDGE('',*,*,#862,.F.);
#1213=ORIENTED_EDGE('',*,*,#987,.F.);
#1214=EDGE_LOOP('',(#1210,#1211,#1212,#1213));
#1215=FACE_BOUND('',#1214,.T.);
#1216=ADVANCED_FACE('',(#1215),#1209,.T.);
#1217=CARTESIAN_POINT('',(12.63602996,-44.16252286,40.086469244));
#1218=DIRECTION('',(0.,-1.,0.));
#1219=DIRECTION('',(1.,0.,0.));
#1220=AXIS2_PLACEMENT_3D('',#1217,#1218,#1219);
#1221=CYLINDRICAL_SURFACE('',#1220,1.5);
#1222=ORIENTED_EDGE('',*,*,#1068,.F.);
#1223=ORIENTED_EDGE('',*,*,#973,.F.);
#1224=ORIENTED_EDGE('',*,*,#845,.F.);
#1225=ORIENTED_EDGE('',*,*,#949,.F.);
#1226=EDGE_LOOP('',(#1222,#1223,#1224,#1225));
#1227=FACE_BOUND('',#1226,.T.);
#1228=ADVANCED_FACE('',(#1227),#1221,.T.);
#1229=CARTESIAN_POINT('',(15.720434633,-46.74252286,39.806286917));
#1230=DIRECTION('',(0.819152044,-0.,-0.573576436));
#1231=DIRECTION('',(0.573576436,0.,0.819152044));
#1232=AXIS2_PLACEMENT_3D('',#1229,#1230,#1231);
#1233=PLANE('',#1232);
#1234=ORIENTED_EDGE('',*,*,#659,.F.);
#1235=ORIENTED_EDGE('',*,*,#129,.F.);
#1236=CARTESIAN_POINT('',(15.006350619,-45.94252286,38.786469254));
#1237=DIRECTION('',(0.573576436,0.,0.819152044));
#1238=VECTOR('',#1237,1.62084647);
#1239=LINE('',#1236,#1238);
#1240=EDGE_CURVE('',#116,#725,#1239,.T.);
#1241=ORIENTED_EDGE('',*,*,#1240,.T.);
#1242=ORIENTED_EDGE('',*,*,#730,.F.);
#1243=EDGE_LOOP('',(#1234,#1235,#1241,#1242));
#1244=FACE_BOUND('',#1243,.T.);
#1245=ADVANCED_FACE('',(#1244),#1233,.T.);
#1246=CARTESIAN_POINT('',(14.28602996,-45.94252286,39.936469244));
#1247=DIRECTION('',(0.,-1.,0.));
#1248=DIRECTION('',(1.,0.,0.));
#1249=AXIS2_PLACEMENT_3D('',#1246,#1247,#1248);
#1250=PLANE('',#1249);
#1251=ORIENTED_EDGE('',*,*,#121,.F.);
#1252=ORIENTED_EDGE('',*,*,#1173,.F.);
#1253=ORIENTED_EDGE('',*,*,#738,.F.);
#1254=ORIENTED_EDGE('',*,*,#1240,.F.);
#1255=EDGE_LOOP('',(#1251,#1252,#1253,#1254));
#1256=FACE_BOUND('',#1255,.T.);
#1257=ADVANCED_FACE('',(#1256),#1250,.T.);
#1258=CARTESIAN_POINT('',(13.672554522,-46.74252286,41.240228008));
#1259=DIRECTION('',(-0.819152044,0.,0.573576436));
#1260=DIRECTION('',(-0.573576436,-0.,-0.819152044));
#1261=AXIS2_PLACEMENT_3D('',#1258,#1259,#1260);
#1262=PLANE('',#1261);
#1263=ORIENTED_EDGE('',*,*,#524,.F.);
#1264=ORIENTED_EDGE('',*,*,#571,.F.);
#1265=CARTESIAN_POINT('',(13.56489147,-45.94252286,41.086469234));
#1266=DIRECTION('',(-0.573576436,-0.,-0.819152044));
#1267=VECTOR('',#1266,1.567716714);
#1268=LINE('',#1265,#1267);
#1269=EDGE_CURVE('',#560,#607,#1268,.T.);
#1270=ORIENTED_EDGE('',*,*,#1269,.T.);
#1271=ORIENTED_EDGE('',*,*,#612,.T.);
#1272=EDGE_LOOP('',(#1263,#1264,#1270,#1271));
#1273=FACE_BOUND('',#1272,.T.);
#1274=ADVANCED_FACE('',(#1273),#1262,.T.);
#1275=CARTESIAN_POINT('',(14.28602996,-45.94252286,39.936469244));
#1276=DIRECTION('',(0.,-1.,0.));
#1277=DIRECTION('',(1.,0.,0.));
#1278=AXIS2_PLACEMENT_3D('',#1275,#1276,#1277);
#1279=PLANE('',#1278);
#1280=ORIENTED_EDGE('',*,*,#565,.F.);
#1281=ORIENTED_EDGE('',*,*,#1155,.F.);
#1282=ORIENTED_EDGE('',*,*,#675,.F.);
#1283=ORIENTED_EDGE('',*,*,#619,.T.);
#1284=ORIENTED_EDGE('',*,*,#1269,.F.);
#1285=EDGE_LOOP('',(#1280,#1281,#1282,#1283,#1284));
#1286=FACE_BOUND('',#1285,.T.);
#1287=ADVANCED_FACE('',(#1286),#1279,.T.);
#1288=CARTESIAN_POINT('',(15.310858611,-46.74252286,40.093075135));
#1289=DIRECTION('',(-0.819152044,0.,0.573576436));
#1290=DIRECTION('',(-0.573576436,-0.,-0.819152044));
#1291=AXIS2_PLACEMENT_3D('',#1288,#1289,#1290);
#1292=PLANE('',#1291);
#1293=ORIENTED_EDGE('',*,*,#652,.F.);
#1294=CARTESIAN_POINT('',(15.779299707,-45.94252286,40.762078352));
#1295=VERTEX_POINT('',#1294);
#1296=CARTESIAN_POINT('',(15.779299707,-46.33252286,40.762078352));
#1297=DIRECTION('',(-0.,1.,-0.));
#1298=VECTOR('',#1297,0.39);
#1299=LINE('',#1296,#1298);
#1300=EDGE_CURVE('',#640,#1295,#1299,.T.);
#1301=ORIENTED_EDGE('',*,*,#1300,.T.);
#1302=CARTESIAN_POINT('',(15.779299707,-45.94252286,40.762078352));
#1303=DIRECTION('',(-0.573576436,-0.,-0.819152044));
#1304=VECTOR('',#1303,2.411773384);
#1305=LINE('',#1302,#1304);
#1306=EDGE_CURVE('',#1295,#140,#1305,.T.);
#1307=ORIENTED_EDGE('',*,*,#1306,.T.);
#1308=ORIENTED_EDGE('',*,*,#145,.T.);
#1309=EDGE_LOOP('',(#1293,#1301,#1307,#1308));
#1310=FACE_BOUND('',#1309,.T.);
#1311=ADVANCED_FACE('',(#1310),#1292,.T.);
#1312=CARTESIAN_POINT('',(14.901282589,-46.74252286,40.379863353));
#1313=DIRECTION('',(0.819152044,-0.,-0.573576436));
#1314=DIRECTION('',(0.573576436,0.,0.819152044));
#1315=AXIS2_PLACEMENT_3D('',#1312,#1313,#1314);
#1316=PLANE('',#1315);
#1317=CARTESIAN_POINT('',(15.37128516,-45.94252286,41.051096588));
#1318=VERTEX_POINT('',#1317);
#1319=CARTESIAN_POINT('',(13.78557603,-45.94252286,38.786469254));
#1320=DIRECTION('',(0.573576436,0.,0.819152044));
#1321=VECTOR('',#1320,2.764599502);
#1322=LINE('',#1319,#1321);
#1323=EDGE_CURVE('',#148,#1318,#1322,.T.);
#1324=ORIENTED_EDGE('',*,*,#1323,.T.);
#1325=CARTESIAN_POINT('',(15.37128516,-45.94252286,41.051096588));
#1326=DIRECTION('',(0.,-1.,0.));
#1327=VECTOR('',#1326,0.39);
#1328=LINE('',#1325,#1327);
#1329=EDGE_CURVE('',#1318,#60,#1328,.T.);
#1330=ORIENTED_EDGE('',*,*,#1329,.T.);
#1331=ORIENTED_EDGE('',*,*,#65,.F.);
#1332=ORIENTED_EDGE('',*,*,#159,.F.);
#1333=EDGE_LOOP('',(#1324,#1330,#1331,#1332));
#1334=FACE_BOUND('',#1333,.T.);
#1335=ADVANCED_FACE('',(#1334),#1316,.T.);
#1336=CARTESIAN_POINT('',(14.28602996,-45.94252286,39.936469244));
#1337=DIRECTION('',(0.,-1.,0.));
#1338=DIRECTION('',(1.,0.,0.));
#1339=AXIS2_PLACEMENT_3D('',#1336,#1337,#1338);
#1340=PLANE('',#1339);
#1341=ORIENTED_EDGE('',*,*,#1306,.F.);
#1342=CARTESIAN_POINT('',(15.13602996,-45.94252286,40.286469234));
#1343=DIRECTION('',(0.,-1.,0.));
#1344=DIRECTION('',(0.,-0.,-1.));
#1345=AXIS2_PLACEMENT_3D('',#1342,#1343,#1344);
#1346=CIRCLE('',#1345,0.8);
#1347=EDGE_CURVE('',#1295,#1318,#1346,.T.);
#1348=ORIENTED_EDGE('',*,*,#1347,.T.);
#1349=ORIENTED_EDGE('',*,*,#1323,.F.);
#1350=ORIENTED_EDGE('',*,*,#153,.F.);
#1351=EDGE_LOOP('',(#1341,#1348,#1349,#1350));
#1352=FACE_BOUND('',#1351,.T.);
#1353=ADVANCED_FACE('',(#1352),#1340,.T.);
#1354=CARTESIAN_POINT('',(14.082130545,-46.74252286,40.953439789));
#1355=DIRECTION('',(0.819152044,-0.,-0.573576436));
#1356=DIRECTION('',(0.573576436,0.,0.819152044));
#1357=AXIS2_PLACEMENT_3D('',#1354,#1355,#1356);
#1358=PLANE('',#1357);
#1359=ORIENTED_EDGE('',*,*,#510,.F.);
#1360=CARTESIAN_POINT('',(12.792340365,-45.94252286,39.111428514));
#1361=VERTEX_POINT('',#1360);
#1362=CARTESIAN_POINT('',(12.792340365,-45.94252286,39.111428514));
#1363=DIRECTION('',(-0.,-1.,0.));
#1364=VECTOR('',#1363,0.39);
#1365=LINE('',#1362,#1364);
#1366=EDGE_CURVE('',#1361,#496,#1365,.T.);
#1367=ORIENTED_EDGE('',*,*,#1366,.F.);
#1368=CARTESIAN_POINT('',(12.792340365,-45.94252286,39.111428514));
#1369=DIRECTION('',(0.573576436,0.,0.819152044));
#1370=VECTOR('',#1369,2.411079523);
#1371=LINE('',#1368,#1370);
#1372=EDGE_CURVE('',#1361,#575,#1371,.T.);
#1373=ORIENTED_EDGE('',*,*,#1372,.T.);
#1374=ORIENTED_EDGE('',*,*,#580,.T.);
#1375=EDGE_LOOP('',(#1359,#1367,#1373,#1374));
#1376=FACE_BOUND('',#1375,.T.);
#1377=ADVANCED_FACE('',(#1376),#1358,.T.);
#1378=CARTESIAN_POINT('',(14.28602996,-45.94252286,39.936469244));
#1379=DIRECTION('',(0.,-1.,0.));
#1380=DIRECTION('',(1.,0.,0.));
#1381=AXIS2_PLACEMENT_3D('',#1378,#1379,#1380);
#1382=PLANE('',#1381);
#1383=ORIENTED_EDGE('',*,*,#586,.F.);
#1384=ORIENTED_EDGE('',*,*,#1372,.F.);
#1385=CARTESIAN_POINT('',(13.43602996,-45.94252286,39.586469254));
#1386=DIRECTION('',(0.,-1.,0.));
#1387=DIRECTION('',(0.,-0.,-1.));
#1388=AXIS2_PLACEMENT_3D('',#1385,#1386,#1387);
#1389=CIRCLE('',#1388,0.8);
#1390=EDGE_CURVE('',#1361,#172,#1389,.T.);
#1391=ORIENTED_EDGE('',*,*,#1390,.T.);
#1392=ORIENTED_EDGE('',*,*,#177,.F.);
#1393=EDGE_LOOP('',(#1383,#1384,#1391,#1392));
#1394=FACE_BOUND('',#1393,.T.);
#1395=ADVANCED_FACE('',(#1394),#1382,.T.);
#1396=CARTESIAN_POINT('',(15.13602996,-46.56252286,40.286469234));
#1397=DIRECTION('',(0.,-1.,0.));
#1398=DIRECTION('',(0.,-0.,-1.));
#1399=AXIS2_PLACEMENT_3D('',#1396,#1397,#1398);
#1400=CYLINDRICAL_SURFACE('',#1399,0.8);
#1401=ORIENTED_EDGE('',*,*,#816,.F.);
#1402=ORIENTED_EDGE('',*,*,#541,.F.);
#1403=ORIENTED_EDGE('',*,*,#74,.F.);
#1404=ORIENTED_EDGE('',*,*,#1329,.F.);
#1405=ORIENTED_EDGE('',*,*,#1347,.F.);
#1406=ORIENTED_EDGE('',*,*,#1300,.F.);
#1407=ORIENTED_EDGE('',*,*,#646,.F.);
#1408=ORIENTED_EDGE('',*,*,#721,.F.);
#1409=EDGE_LOOP('',(#1401,#1402,#1403,#1404,#1405,#1406,#1407,#1408));
#1410=FACE_BOUND('',#1409,.T.);
#1411=ADVANCED_FACE('',(#1410),#1400,.T.);
#1412=CARTESIAN_POINT('',(13.43602996,-46.56252286,39.586469254));
#1413=DIRECTION('',(0.,1.,-0.));
#1414=DIRECTION('',(-1.,0.,0.));
#1415=AXIS2_PLACEMENT_3D('',#1412,#1413,#1414);
#1416=CYLINDRICAL_SURFACE('',#1415,0.8);
#1417=ORIENTED_EDGE('',*,*,#603,.F.);
#1418=ORIENTED_EDGE('',*,*,#697,.F.);
#1419=ORIENTED_EDGE('',*,*,#800,.F.);
#1420=ORIENTED_EDGE('',*,*,#97,.F.);
#1421=ORIENTED_EDGE('',*,*,#49,.F.);
#1422=ORIENTED_EDGE('',*,*,#183,.F.);
#1423=ORIENTED_EDGE('',*,*,#1390,.F.);
#1424=ORIENTED_EDGE('',*,*,#1366,.T.);
#1425=ORIENTED_EDGE('',*,*,#502,.F.);
#1426=EDGE_LOOP('',(#1417,#1418,#1419,#1420,#1421,#1422,#1423,#1424,#1425));
#1427=FACE_BOUND('',#1426,.T.);
#1428=ADVANCED_FACE('',(#1427),#1416,.T.);
#1429=CLOSED_SHELL('',(#84,#163,#194,#234,#265,#296,#336,#367,#398,#438,#478,#528,#591,#623,#663,#701,#748,#788,#898,#929,#960,#991,#1022,#1096,#1108,#1120,
#1132,#1144,#1162,#1180,#1192,#1204,#1216,#1228,#1245,#1257,#1274,#1287,#1311,#1335,#1353,#1377,#1395,#1411,#1428));
#1430=MANIFOLD_SOLID_BREP('\X2\5F0051735E3D\X0\',#1429);
#1431=COLOUR_RGB('',0.819607854,0.819607854,0.819607854);
#1432=FILL_AREA_STYLE_COLOUR('',#1431);
#1433=FILL_AREA_STYLE('',(#1432));
#1434=SURFACE_STYLE_FILL_AREA(#1433);
#1435=SURFACE_SIDE_STYLE('',(#1434));
#1436=SURFACE_STYLE_USAGE(.BOTH.,#1435);
#1437=PRESENTATION_STYLE_ASSIGNMENT((#1436));
#26=STYLED_ITEM('',(#1437),#1430);
#16=SHAPE_REPRESENTATION('\X2\5F0051735E3D\X0\',(#15),#10);
#17=ADVANCED_BREP_SHAPE_REPRESENTATION('\X2\5F0051735E3D\X0\',(#1430),#10);
#1445=SHAPE_REPRESENTATION_RELATIONSHIP('','',#16,#17);
#1446=CARTESIAN_POINT('',(0.,0.,0.));
#1447=DIRECTION('',(0.,0.,1.));
#1448=DIRECTION('',(1.,0.,0.));
#1449=AXIS2_PLACEMENT_3D('',#1446,#1447,#1448);
#1451=MAPPED_ITEM('',#1450,#1449);
#1450=REPRESENTATION_MAP(#1449,#16);
#1452=APPLICATION_CONTEXT('Managed model based 3d engineering');
#1453=APPLICATION_PROTOCOL_DEFINITION('international standard','ap242_managed_model_based_3d_engineering',2014,#1452);
#1454=PRODUCT_CONTEXT('',#1452,'mechanical');
#1455=PRODUCT_DEFINITION_CONTEXT('part definition',#1452,'design');
#24=PRODUCT('\X2\5F0051735E3D\X0\','\X2\5F0051735E3D\X0\','',(#1454));
#1456=PRODUCT_RELATED_PRODUCT_CATEGORY('part','',(#24));
#1457=PRODUCT_DEFINITION_FORMATION_WITH_SPECIFIED_SOURCE('','',#24,.NOT_KNOWN.);
#25=PRODUCT_DEFINITION('design','',#1457,#1455);
#23=PRODUCT_DEFINITION_SHAPE('','',#25);
#1458=SHAPE_DEFINITION_REPRESENTATION(#23,#16);
#11=DRAUGHTING_MODEL('',(#1451),#10);
#1459=DESCRIPTIVE_REPRESENTATION_ITEM('KEY','C:\\Users\\10604\\AppData\\Local\\Packages\\Shapr3D.Shapr3D_dvv5p1vgwv6mp\\TempState\\3149b1f4-dfb6-4a3d-bb1c-be99f5b3e035.tmp');
#1460=PROPERTY_DEFINITION('KEY','',#25);
#1461=REPRESENTATION('',(#1459),#10);
#1462=PROPERTY_DEFINITION_REPRESENTATION(#1460,#1461);
#1463=GENERAL_PROPERTY('','KEY','');
#1464=GENERAL_PROPERTY_ASSOCIATION('','',#1463,#1460);
#1=MECHANICAL_DESIGN_GEOMETRIC_PRESENTATION_REPRESENTATION('',(#26),#10);
ENDSEC;
END-ISO-10303-21;
